<?xml version="1.0" standalone="no"?>
<!DOCTYPE svg PUBLIC "-//W3C//DTD SVG 20010904//EN"
 "http://www.w3.org/TR/2001/REC-SVG-20010904/DTD/svg10.dtd">
<svg version="1.0" xmlns="http://www.w3.org/2000/svg"
 width="960.000000pt" height="960.000000pt" viewBox="0 0 960.000000 960.000000"
 preserveAspectRatio="xMidYMid meet">
<metadata>
Created by potrace 1.14, written by Peter Selinger 2001-2017
</metadata>
<g transform="translate(0.000000,960.000000) scale(0.100000,-0.100000)"
fill="#000000" stroke="none">
<path d="M5238 7511 c-20 -9 -85 -23 -145 -30 -111 -13 -241 -53 -318 -97 -22
-13 -67 -50 -100 -84 -33 -33 -65 -60 -71 -60 -7 0 -25 20 -40 45 -30 47 -147
130 -282 202 l-67 35 -125 -5 c-78 -3 -143 -12 -172 -22 -68 -24 -159 -117
-188 -191 l-23 -59 -96 0 c-87 0 -101 -3 -151 -29 -30 -16 -76 -41 -102 -54
-26 -13 -86 -65 -136 -116 -95 -98 -124 -152 -142 -264 -12 -69 -14 -72 -56
-65 -44 7 -80 -23 -95 -81 -6 -23 -27 -59 -48 -81 -21 -22 -42 -52 -48 -66
-10 -24 -18 -27 -76 -31 -81 -5 -139 -40 -168 -101 -11 -23 -29 -55 -42 -72
-12 -16 -29 -40 -38 -53 l-17 -23 -38 19 c-65 32 -177 55 -254 50 -68 -4 -72
-5 -108 -44 -20 -23 -53 -49 -72 -59 -77 -39 -94 -72 -115 -220 -30 -209 -13
-354 54 -461 61 -97 55 -112 -59 -164 -29 -13 -98 -109 -120 -167 -15 -40 -24
-89 -27 -158 -4 -88 -2 -110 21 -185 52 -172 85 -252 134 -324 l50 -74 -13
-53 c-7 -30 -18 -67 -24 -82 -15 -39 -14 -152 3 -217 7 -30 16 -114 19 -187
l5 -132 -44 -36 c-24 -20 -44 -43 -44 -51 0 -8 -8 -22 -17 -32 -10 -9 -25 -27
-33 -39 -8 -12 -40 -56 -70 -100 -31 -43 -65 -98 -77 -123 -94 -196 -144 -297
-153 -310 -19 -29 -110 -225 -110 -237 0 -17 15 -16 51 3 17 8 65 27 107 40
43 14 93 35 112 46 65 38 277 78 490 92 140 10 364 54 610 121 184 50 315 87
385 108 101 31 165 42 165 29 0 -5 -7 -29 -15 -52 -8 -23 -15 -62 -15 -86 0
-25 -8 -57 -20 -77 -18 -31 -20 -47 -16 -238 3 -115 10 -221 16 -244 7 -22 33
-85 60 -140 26 -55 63 -134 81 -175 19 -41 50 -96 69 -122 20 -26 44 -74 55
-105 10 -32 22 -62 27 -68 5 -6 74 -10 166 -10 115 0 176 -5 227 -17 96 -24
272 -59 320 -65 22 -2 52 0 66 6 25 9 27 14 34 100 4 50 10 91 14 91 3 0 14
-21 23 -48 39 -109 110 -180 259 -260 92 -49 166 -77 244 -92 33 -7 87 -21
119 -31 33 -10 69 -19 79 -19 25 0 123 53 162 86 17 15 44 32 60 40 34 14 85
60 85 75 0 5 17 28 39 52 21 23 44 54 52 68 8 14 33 47 56 73 38 43 47 48 105
57 77 12 146 34 168 54 15 14 20 14 46 0 40 -21 93 -19 149 5 26 11 55 20 65
20 10 0 31 11 47 24 15 13 51 35 79 50 43 22 56 25 79 16 20 -7 37 -7 60 0 39
13 58 34 73 79 7 18 32 51 57 73 53 47 56 70 16 118 -16 20 -51 79 -79 132
-48 92 -49 97 -29 100 30 5 190 0 327 -12 63 -5 181 -13 261 -18 80 -4 150
-11 156 -15 46 -28 578 -52 593 -26 19 29 -10 97 -62 146 -32 31 -189 113
-215 113 -17 0 -100 42 -249 126 -65 37 -161 90 -212 118 l-94 51 96 7 c52 4
124 16 158 27 99 31 292 102 383 141 28 12 66 28 85 36 67 29 78 36 148 102
81 76 137 172 126 216 -3 14 -7 45 -8 68 -3 47 -18 93 -48 148 -11 19 -28 54
-39 77 -11 24 -32 49 -47 57 -32 17 -193 64 -273 80 -18 4 -29 14 -33 32 -5
19 -21 32 -64 51 -31 14 -87 52 -124 85 -37 32 -80 63 -97 69 -16 6 -31 16
-34 22 -3 7 35 60 84 117 53 64 114 151 153 221 36 64 73 122 82 129 18 16 58
93 68 132 3 16 25 54 47 87 49 72 71 147 62 218 -5 49 -9 55 -52 82 -73 47
-108 90 -116 141 -14 99 -70 232 -127 308 -33 43 -57 60 -133 98 l-93 47 -7
51 c-4 28 -8 72 -9 97 -1 35 -10 58 -38 100 -20 30 -40 68 -44 84 -15 62 -73
159 -116 193 -37 29 -49 33 -83 29 -22 -2 -61 -14 -87 -26 -26 -11 -51 -21
-57 -21 -28 0 -102 -90 -140 -170 -22 -47 -41 -80 -41 -73 0 13 4 22 41 113
32 78 30 194 -4 271 -24 54 -81 129 -98 129 -5 0 -52 20 -103 45 -52 25 -107
45 -123 45 -15 0 -46 7 -68 14 -35 12 -41 19 -46 51 -5 29 -23 52 -88 115 -69
67 -89 80 -133 90 -29 7 -64 19 -78 28 -33 20 -170 162 -181 187 -5 11 -21 43
-37 70 -28 49 -29 50 -84 55 -33 3 -64 12 -75 23 -26 23 -124 22 -175 -2z
m-1536 -393 c-5 -74 -13 -108 -24 -108 -11 0 -4 123 8 142 12 20 19 5 16 -34z
m1025 -404 c-19 -19 -27 -22 -27 -12 0 15 41 50 49 42 2 -2 -8 -16 -22 -30z
m-127 22 c0 -3 -4 -8 -10 -11 -5 -3 -10 -1 -10 4 0 6 5 11 10 11 6 0 10 -2 10
-4z m40 -50 c0 -5 -7 -3 -15 4 -8 7 -15 20 -15 28 0 13 3 12 15 -4 8 -10 15
-23 15 -28z m24 -66 c7 -35 7 -35 -8 -10 -9 14 -15 34 -16 45 0 30 17 5 24
-35z m-104 -38 c6 -21 5 -30 -2 -26 -6 4 -8 -2 -3 -17 6 -18 4 -21 -5 -13 -6
6 -12 18 -13 25 -2 8 -6 19 -9 25 -4 6 -2 28 4 50 11 34 12 36 16 14 2 -14 7
-40 12 -58z m40 -108 c0 -8 -4 -12 -10 -9 -5 3 -10 10 -10 16 0 5 5 9 10 9 6
0 10 -7 10 -16z m-657 -61 c-3 -7 -9 -13 -13 -13 -14 0 -22 20 -16 36 5 12 8
13 20 2 7 -7 11 -19 9 -25z m1394 -35 c-2 -13 -4 -5 -4 17 -1 22 1 32 4 23 2
-10 2 -28 0 -40z m542 -54 c-7 -8 -20 -19 -29 -24 -16 -8 -16 -6 -6 24 6 19
18 42 26 52 14 16 15 16 18 -10 2 -15 -2 -34 -9 -42z m66 17 c24 -35 26 -47
23 -105 -3 -63 3 -83 16 -51 7 20 95 58 115 50 14 -6 13 -8 -3 -21 -18 -12
-18 -14 -3 -14 10 0 22 10 27 23 9 22 9 22 9 1 1 -12 -10 -42 -24 -65 -30 -53
-31 -59 -5 -52 27 7 25 -1 -7 -37 -29 -33 -41 -33 -24 -1 11 19 10 20 -14 11
-24 -9 -25 -8 -19 18 4 15 15 39 26 54 25 37 9 42 -32 10 -18 -14 -42 -26 -52
-27 -10 0 -29 -16 -41 -34 -12 -19 -16 -32 -9 -27 6 4 12 3 12 -3 0 -11 -39
-35 -46 -28 -8 8 17 61 39 85 17 18 19 25 8 31 -11 7 -11 15 -2 41 18 53 14
113 -9 133 -12 10 -20 12 -20 5 0 -6 -3 -9 -6 -5 -5 5 4 47 10 47 2 0 16 -18
31 -39z m-710 -11 c-3 -5 -11 -10 -16 -10 -6 0 -7 5 -4 10 3 6 11 10 16 10 6
0 7 -4 4 -10z m315 -6 c0 -3 -11 -22 -25 -42 -31 -45 -32 -72 -3 -80 21 -5 21
-6 2 -12 -26 -10 -34 -4 -34 28 0 33 35 112 50 112 5 0 10 -2 10 -6z m74 -40
c10 -27 7 -35 -12 -23 -21 13 -25 39 -6 39 6 0 15 -7 18 -16z m126 -30 c0 -8
-4 -12 -10 -9 -5 3 -10 10 -10 16 0 5 5 9 10 9 6 0 10 -7 10 -16z m-113 -39
c-28 -25 -47 -32 -47 -17 1 21 28 40 60 41 10 0 5 -9 -13 -24z m-67 -72 c0
-43 -6 -41 -13 5 -3 17 -1 32 4 32 5 0 9 -16 9 -37z m180 -15 c0 -5 -6 -7 -12
-4 -7 3 -21 9 -30 12 -10 4 -18 10 -18 15 0 4 14 3 30 -2 17 -6 30 -15 30 -21z
m-985 -14 c18 -43 19 -52 5 -38 -11 11 -32 74 -24 74 2 0 11 -16 19 -36z
m1035 -4 c6 -11 20 -20 30 -20 11 0 20 -4 20 -10 0 -5 -13 -10 -30 -10 -16 0
-30 5 -30 10 0 6 -8 10 -17 11 -12 0 -13 2 -5 6 10 4 10 8 1 19 -9 11 -8 14 4
14 9 0 21 -9 27 -20z m-980 -7 c-8 -3 -18 -11 -22 -17 -5 -7 -8 -4 -8 7 0 11
7 17 23 16 15 0 17 -2 7 -6z m1634 -177 c-10 -8 -21 -12 -23 -10 -3 2 4 11 15
18 10 8 21 12 23 10 3 -2 -4 -11 -15 -18z m-529 -16 c4 -6 11 -8 16 -5 5 4 9
-1 9 -9 0 -12 -5 -13 -30 -5 -16 6 -30 15 -30 20 0 12 27 11 35 -1z m36 -122
l-11 -33 5 40 c3 22 6 60 7 85 l2 45 3 -52 c2 -28 -1 -66 -6 -85z m-2241 79
c0 -4 9 -5 20 -2 31 10 24 -2 -12 -22 -34 -18 -88 -26 -88 -13 0 14 29 75 30
62 0 -7 -4 -22 -10 -32 -9 -16 -7 -18 17 -16 32 4 38 17 23 48 -11 22 -10 22
4 4 9 -11 16 -24 16 -29z m69 -7 c-10 -44 -8 -73 7 -115 5 -14 4 -17 -4 -10
-21 19 -29 107 -13 142 19 42 22 38 10 -17z m18 -12 c-3 -8 -6 -5 -6 6 -1 11
2 17 5 13 3 -3 4 -12 1 -19z m-194 -28 c-7 -28 -13 -25 -13 6 0 14 4 23 9 20
5 -3 7 -15 4 -26z m725 -34 c-7 -8 -15 -12 -17 -11 -5 6 10 25 20 25 5 0 4 -6
-3 -14z m1509 -18 c-3 -7 -5 -2 -5 12 0 14 2 19 5 13 2 -7 2 -19 0 -25z m62
10 c0 -13 -3 -17 -6 -10 -2 6 -9 10 -14 6 -5 -3 -9 2 -9 10 0 9 7 16 15 16 9
0 15 -9 14 -22z m-1984 2 c4 -6 -9 -10 -32 -10 -28 0 -34 3 -23 10 20 13 47
13 55 0z m-334 -27 c-12 -20 -14 -14 -5 12 4 9 9 14 11 11 3 -2 0 -13 -6 -23z
m1382 2 c-3 -9 -8 -14 -10 -11 -3 3 -2 9 2 15 9 16 15 13 8 -4z m1260 -20 c-3
-9 -8 -14 -10 -11 -3 3 -2 9 2 15 9 16 15 13 8 -4z m-193 -50 c0 -25 -14 -29
-36 -10 -15 13 -6 28 12 21 8 -3 14 -1 14 4 0 6 2 10 5 10 3 0 5 -11 5 -25z
m-2243 -17 c-3 -8 -6 -5 -6 6 -1 11 2 17 5 13 3 -3 4 -12 1 -19z m-27 -8 c-10
-6 -11 -10 -2 -10 6 0 12 -7 12 -15 0 -8 5 -15 10 -15 17 0 11 -14 -11 -28
-19 -12 -20 -11 -18 20 2 21 -1 32 -8 31 -7 -2 -10 4 -7 12 4 8 14 15 23 15
14 0 14 -2 1 -10z m-45 -39 c-3 -6 -14 -10 -23 -10 -15 1 -15 2 1 6 9 2 17 9
17 15 0 6 3 9 6 5 3 -3 3 -10 -1 -16z m123 -2 c10 -15 16 -18 26 -10 9 8 13 7
13 -4 0 -19 -26 -28 -43 -14 -7 6 -19 7 -25 3 -7 -4 -9 -3 -5 4 3 6 -1 18 -10
26 -14 15 -13 16 8 16 13 0 29 -9 36 -21z m198 -17 c-4 -3 -11 0 -16 8 -15 24
-11 33 6 15 9 -9 13 -19 10 -23z m-373 -12 c-3 -12 -8 -19 -11 -16 -5 6 5 36
12 36 2 0 2 -9 -1 -20z m334 -22 c-3 -7 -5 -2 -5 12 0 14 2 19 5 13 2 -7 2
-19 0 -25z m2496 -15 c-7 -2 -19 -2 -25 0 -7 3 -2 5 12 5 14 0 19 -2 13 -5z
m-533 -63 c0 -5 -4 -10 -10 -10 -5 0 -10 -8 -11 -17 0 -10 -3 -13 -5 -6 -3 7
-13 9 -22 7 -10 -4 -7 2 8 15 28 23 40 26 40 11z m-67 -34 c4 -10 0 -14 -13
-13 -14 1 -16 4 -8 14 13 16 15 16 21 -1z m216 -79 c-2 -1 -13 -9 -24 -17 -19
-14 -19 -14 -6 3 7 9 18 17 24 17 6 0 8 -1 6 -3z m529 -34 c-1 -37 -1 -37 -5
-6 -3 19 -11 34 -21 36 -12 3 -10 5 6 6 19 1 22 -3 20 -36z m71 11 c-6 -8 -15
-12 -18 -8 -3 4 0 9 7 11 6 3 9 10 6 15 -4 7 -2 8 5 4 9 -6 9 -11 0 -22z
m-589 -4 c0 -5 -10 -15 -22 -21 -23 -12 -23 -12 -4 10 21 23 26 26 26 11z
m-2433 -42 c-3 -8 -6 -5 -6 6 -1 11 2 17 5 13 3 -3 4 -12 1 -19z m-1677 -7 c0
-14 89 -109 108 -115 9 -3 22 -14 29 -25 31 -50 -125 9 -162 61 -18 27 -20 59
-3 76 14 14 28 16 28 3z m4080 -53 c0 -15 -5 -30 -11 -33 -7 -5 -8 4 -4 28 4
21 3 37 -4 41 -6 4 -11 12 -11 19 0 6 7 2 15 -9 8 -10 15 -31 15 -46z m-1432
23 c10 -6 9 -15 -7 -42 -11 -19 -29 -41 -41 -49 -23 -17 -26 -30 -6 -30 7 0
19 -7 27 -16 10 -12 5 -11 -22 4 -23 13 -33 25 -31 38 2 11 6 38 9 62 4 38 8
42 32 42 14 0 32 -4 39 -9z m-1308 -51 c0 -5 -2 -10 -4 -10 -3 0 -8 5 -11 10
-3 6 -1 10 4 10 6 0 11 -4 11 -10z m1206 -26 l2 -29 -5 28 c-3 20 -9 27 -19
23 -9 -3 -12 -2 -9 5 12 18 30 3 31 -27z m-869 -6 c-3 -7 -5 -2 -5 12 0 14 2
19 5 13 2 -7 2 -19 0 -25z m88 -19 c-4 -6 -7 -27 -7 -47 0 -28 -2 -32 -8 -17
-4 11 -6 26 -4 33 10 34 14 42 19 42 4 0 3 -5 0 -11z m-950 -39 c-27 -12 -43
-12 -25 0 8 5 22 9 30 9 10 0 8 -3 -5 -9z m3171 -25 c-32 -24 -84 -17 -59 8 3
4 22 7 42 7 34 -1 35 -2 17 -15z m-2825 -47 c8 -15 8 -18 0 -14 -6 4 -16 16
-22 28 -8 15 -8 18 0 14 6 -4 16 -16 22 -28z m589 12 c0 -6 -10 -10 -23 -10
-13 0 -29 -6 -36 -12 -11 -11 -11 -9 -1 7 12 21 60 33 60 15z m63 -25 c-3 -9
-8 -14 -10 -11 -3 3 -2 9 2 15 9 16 15 13 8 -4z m783 -21 c-4 -9 -9 -15 -11
-12 -3 3 -3 13 1 22 4 9 9 15 11 12 3 -3 3 -13 -1 -22z m64 -9 c0 -8 -2 -15
-4 -15 -2 0 -6 7 -10 15 -3 8 -1 15 4 15 6 0 10 -7 10 -15z m820 -5 c0 -5 -5
-10 -11 -10 -5 0 -7 5 -4 10 3 6 8 10 11 10 2 0 4 -4 4 -10z m-1835 -10 c-3
-5 -12 -10 -18 -10 -7 0 -6 4 3 10 19 12 23 12 15 0z m995 -70 c-8 -16 -8 -25
0 -35 8 -10 4 -15 -20 -23 -37 -13 -60 -6 -60 18 0 10 -7 20 -15 24 -45 17 10
70 62 60 24 -5 33 -2 34 7 1 8 4 4 6 -8 2 -12 -1 -31 -7 -43z m-797 25 c-3 -9
-8 -14 -10 -11 -3 3 -2 9 2 15 9 16 15 13 8 -4z m-1089 -20 c15 -11 16 -15 5
-15 -8 0 -24 7 -35 15 -14 11 -15 14 -4 14 8 0 24 -6 34 -14z m2473 -27 c-3
-8 -6 -5 -6 6 -1 11 2 17 5 13 3 -3 4 -12 1 -19z m161 -27 c-26 -33 -61 -55
-37 -24 30 40 43 53 51 53 5 0 -1 -13 -14 -29z m-300 -56 c-3 -3 -9 2 -12 12
-6 14 -5 15 5 6 7 -7 10 -15 7 -18z m1850 -52 c-34 -35 -46 -37 -29 -5 8 16 7
21 -5 26 -22 8 -6 28 19 24 15 -2 21 2 19 12 -1 10 2 9 13 -4 14 -18 13 -22
-17 -53z m-3278 13 c0 -20 -7 -37 -19 -46 -11 -7 -18 -17 -15 -22 3 -4 1 -8
-4 -8 -15 0 -23 60 -11 83 11 20 12 20 25 2 11 -14 14 -15 14 -4 0 8 -6 21
-12 28 -11 10 -10 11 5 6 11 -5 17 -18 17 -39z m268 -18 c8 -10 5 -13 -13 -13
-14 0 -21 5 -18 13 3 6 9 12 13 12 4 0 12 -6 18 -12z m-28 -42 c0 -3 -4 -8
-10 -11 -5 -3 -10 -1 -10 4 0 6 5 11 10 11 6 0 10 -2 10 -4z m-225 -26 c3 -5
-1 -10 -9 -10 -9 0 -16 5 -16 10 0 6 4 10 9 10 6 0 13 -4 16 -10z m218 -39 c4
10 6 9 6 -3 1 -10 6 -18 11 -18 15 0 12 -29 -4 -45 -11 -11 -16 -8 -30 21 -9
19 -16 47 -15 62 l1 27 12 -29 c9 -20 15 -25 19 -15z m-248 9 c3 -11 3 -25 -1
-32 -6 -10 -4 -11 7 0 21 19 38 14 45 -13 3 -14 10 -25 15 -25 5 0 9 -9 9 -21
0 -13 4 -18 13 -13 8 5 7 2 -2 -9 -13 -16 -15 -16 -28 3 -8 11 -21 20 -29 20
-33 0 -69 57 -59 91 8 25 22 24 30 -1z m305 5 c0 -8 -2 -15 -4 -15 -2 0 -6 7
-10 15 -3 8 -1 15 4 15 6 0 10 -7 10 -15z m46 -42 c-8 -8 -36 5 -36 17 0 7 6
7 21 0 11 -7 18 -14 15 -17z m-146 -28 c-10 -18 -16 -22 -21 -13 -7 10 -11 10
-21 0 -6 -6 -19 -12 -27 -12 -10 0 -1 14 23 36 27 25 42 32 49 25 7 -7 6 -18
-3 -36z m1338 -406 c-13 -7 -16 -17 -11 -39 3 -17 2 -30 -3 -30 -5 0 -9 15 -8
33 1 46 2 47 22 47 16 -1 16 -1 0 -11z m-2258 -59 c-6 -11 -13 -20 -16 -20 -2
0 0 9 6 20 6 11 13 20 16 20 2 0 0 -9 -6 -20z m47 -26 c2 -6 -8 -14 -22 -16
-19 -4 -23 -2 -15 7 5 6 6 15 2 20 -4 4 2 6 12 4 11 -2 21 -9 23 -15z m-89
-40 l-21 -36 -13 23 c-11 22 -10 24 9 27 12 2 26 8 32 13 16 16 15 10 -7 -27z
m792 -84 c0 -5 -4 -10 -10 -10 -5 0 -10 5 -10 10 0 6 5 10 10 10 6 0 10 -4 10
-10z m1392 -155 c-3 -18 0 -25 12 -25 20 0 20 -9 1 -36 -8 -12 -11 -24 -8 -28
3 -3 -3 -6 -15 -6 -12 0 -22 -4 -22 -10 0 -10 -39 -34 -45 -28 -3 2 7 17 20
32 14 16 25 26 25 21 0 -4 7 -2 15 5 8 7 15 16 15 21 0 14 -28 11 -33 -3 -3
-8 -6 -6 -6 5 -1 9 4 17 11 17 9 0 9 3 0 12 -17 17 -15 28 5 21 10 -4 14 -2
10 4 -4 6 -1 14 5 16 7 3 14 6 14 6 1 1 -1 -10 -4 -24z m175 -21 c-3 -3 -12
-4 -19 -1 -8 3 -5 6 6 6 11 1 17 -2 13 -5z m199 -10 c18 -14 18 -14 -6 -3 -31
14 -36 19 -24 19 6 0 19 -7 30 -16z m-81 -84 c-3 -5 -10 -10 -16 -10 -5 0 -9
5 -9 10 0 6 7 10 16 10 8 0 12 -4 9 -10z m-1749 -17 c-3 -8 -6 -18 -6 -21 0
-4 -25 -5 -57 -2 -40 3 -57 9 -58 20 -2 12 11 15 62 16 53 2 63 -1 59 -13z
m-329 1 c-3 -3 -12 -4 -19 -1 -8 3 -5 6 6 6 11 1 17 -2 13 -5z m431 -64 c17 0
34 -5 38 -12 5 -8 2 -9 -10 -5 -10 4 -26 2 -36 -3 -25 -13 -42 -5 -70 32 l-23
32 35 -22 c19 -12 49 -22 66 -22z m-163 -23 c-11 -8 -28 -17 -38 -20 -26 -10
-10 12 17 23 32 13 43 12 21 -3z m-1444 -274 c13 -16 12 -17 -3 -4 -10 7 -18
15 -18 17 0 8 8 3 21 -13z m1975 -82 c9 7 14 8 14 1 0 -6 -4 -14 -10 -17 -5
-3 -10 -11 -10 -16 0 -6 5 -7 10 -4 12 8 13 3 0 -29 -8 -22 -13 -24 -33 -17
-16 6 -28 6 -36 -2 -8 -8 -11 -8 -11 1 0 7 4 12 8 12 4 0 14 21 21 48 10 40
14 44 22 29 8 -14 14 -16 25 -6z m-193 -81 c4 0 5 6 1 13 -6 10 -4 10 7 0 10
-10 10 -16 1 -25 -7 -7 -12 -17 -12 -22 0 -6 5 -4 11 4 9 13 10 13 6 -2 -7
-19 33 -34 45 -15 11 18 17 4 7 -20 -5 -13 -13 -23 -19 -23 -6 0 -8 4 -5 10 3
5 -10 16 -30 24 -19 8 -35 22 -35 30 0 8 -3 23 -6 33 -6 15 -4 16 7 6 7 -7 17
-13 22 -13z m1814 -42 c-3 -8 -6 -5 -6 6 -1 11 2 17 5 13 3 -3 4 -12 1 -19z
m-1894 -66 c16 -8 17 -11 6 -11 -20 -1 -52 33 -42 43 5 4 9 1 11 -7 2 -8 13
-19 25 -25z m2614 -504 c-3 -8 -6 -5 -6 6 -1 11 2 17 5 13 3 -3 4 -12 1 -19z
m-1146 -525 c13 -16 12 -17 -3 -4 -17 13 -22 21 -14 21 2 0 10 -8 17 -17z"/>
</g>
</svg>
